<mxfile host="65bd71144e">
    <diagram id="7agUaqImRUUbQjFx-lUx" name="Page-1">
        <mxGraphModel dx="738" dy="841" grid="1" gridSize="10" guides="1" tooltips="1" connect="1" arrows="1" fold="1" page="1" pageScale="1" pageWidth="827" pageHeight="1169" math="0" shadow="0">
            <root>
                <mxCell id="0"/>
                <mxCell id="1" parent="0"/>
                <mxCell id="92" value="" style="triangle;whiteSpace=wrap;html=1;opacity=50;rotation=-45;fillColor=#0050ef;fontColor=#ffffff;strokeColor=#001DBC;" vertex="1" parent="1">
                    <mxGeometry x="314.32" y="600.44" width="35" height="40" as="geometry"/>
                </mxCell>
                <mxCell id="94" value="" style="triangle;whiteSpace=wrap;html=1;opacity=50;rotation=0;fillColor=#0050ef;fontColor=#ffffff;strokeColor=#001DBC;" vertex="1" parent="1">
                    <mxGeometry x="162.05" y="481.94" width="37.27" height="40" as="geometry"/>
                </mxCell>
                <mxCell id="95" value="" style="triangle;whiteSpace=wrap;html=1;opacity=50;rotation=-65;fillColor=#0050ef;fontColor=#ffffff;strokeColor=#001DBC;" vertex="1" parent="1">
                    <mxGeometry x="139.32" y="484.44" width="32.27" height="35" as="geometry"/>
                </mxCell>
                <mxCell id="96" value="" style="verticalLabelPosition=bottom;verticalAlign=top;html=1;shape=mxgraph.basic.obtuse_triangle;dx=0.28;opacity=50;rotation=-120;fillColor=#0050ef;fontColor=#ffffff;strokeColor=#001DBC;" vertex="1" parent="1">
                    <mxGeometry x="74.32" y="542.5699999999999" width="60" height="13.75" as="geometry"/>
                </mxCell>
                <mxCell id="97" value="" style="verticalLabelPosition=bottom;verticalAlign=top;html=1;shape=mxgraph.basic.obtuse_triangle;dx=0.28;opacity=50;rotation=-90;fillColor=#0050ef;fontColor=#ffffff;strokeColor=#001DBC;" vertex="1" parent="1">
                    <mxGeometry x="70" y="597.62" width="56.14" height="27.5" as="geometry"/>
                </mxCell>
                <mxCell id="98" value="" style="triangle;whiteSpace=wrap;html=1;opacity=50;rotation=68;fillColor=#0050ef;fontColor=#ffffff;strokeColor=#001DBC;" vertex="1" parent="1">
                    <mxGeometry x="80.88" y="637.1200000000001" width="65" height="40" as="geometry"/>
                </mxCell>
                <mxCell id="99" value="" style="ellipse;whiteSpace=wrap;html=1;aspect=fixed;fillColor=#0050ef;fontColor=#ffffff;strokeColor=#001DBC;" vertex="1" parent="1">
                    <mxGeometry x="109.32" y="544.44" width="10" height="10" as="geometry"/>
                </mxCell>
                <mxCell id="100" value="" style="ellipse;whiteSpace=wrap;html=1;aspect=fixed;fillColor=#0050ef;fontColor=#ffffff;strokeColor=#001DBC;" vertex="1" parent="1">
                    <mxGeometry x="129.32" y="504.44" width="10" height="10" as="geometry"/>
                </mxCell>
                <mxCell id="101" value="" style="ellipse;whiteSpace=wrap;html=1;aspect=fixed;fillColor=#0050ef;fontColor=#ffffff;strokeColor=#001DBC;" vertex="1" parent="1">
                    <mxGeometry x="79.32" y="634.44" width="10" height="10" as="geometry"/>
                </mxCell>
                <mxCell id="102" value="" style="ellipse;whiteSpace=wrap;html=1;aspect=fixed;fillColor=#0050ef;fontColor=#ffffff;strokeColor=#001DBC;" vertex="1" parent="1">
                    <mxGeometry x="309.32" y="514.44" width="10" height="10" as="geometry"/>
                </mxCell>
                <mxCell id="103" value="" style="ellipse;whiteSpace=wrap;html=1;aspect=fixed;fillColor=#0050ef;fontColor=#ffffff;strokeColor=#001DBC;" vertex="1" parent="1">
                    <mxGeometry x="109.32" y="574.44" width="10" height="10" as="geometry"/>
                </mxCell>
                <mxCell id="104" value="" style="ellipse;whiteSpace=wrap;html=1;aspect=fixed;fillColor=#0050ef;fontColor=#ffffff;strokeColor=#001DBC;" vertex="1" parent="1">
                    <mxGeometry x="194.32" y="494.44" width="10" height="10" as="geometry"/>
                </mxCell>
                <mxCell id="105" value="" style="triangle;whiteSpace=wrap;html=1;opacity=50;rotation=0;fillColor=#0050ef;fontColor=#ffffff;strokeColor=#001DBC;" vertex="1" parent="1">
                    <mxGeometry x="244.32" y="684.44" width="60" height="30" as="geometry"/>
                </mxCell>
                <mxCell id="106" value="" style="ellipse;whiteSpace=wrap;html=1;aspect=fixed;fillColor=#0050ef;fontColor=#ffffff;strokeColor=#001DBC;" vertex="1" parent="1">
                    <mxGeometry x="349.32" y="544.44" width="10" height="10" as="geometry"/>
                </mxCell>
                <mxCell id="107" value="" style="ellipse;whiteSpace=wrap;html=1;aspect=fixed;fillColor=#0050ef;fontColor=#ffffff;strokeColor=#001DBC;" vertex="1" parent="1">
                    <mxGeometry x="119.32" y="679.44" width="10" height="10" as="geometry"/>
                </mxCell>
                <mxCell id="108" value="" style="triangle;whiteSpace=wrap;html=1;opacity=50;rotation=90;fillColor=#0050ef;fontColor=#ffffff;strokeColor=#001DBC;" vertex="1" parent="1">
                    <mxGeometry x="195.57" y="659.19" width="25" height="71.37" as="geometry"/>
                </mxCell>
                <mxCell id="109" value="" style="triangle;whiteSpace=wrap;html=1;opacity=50;rotation=-182;fillColor=#0050ef;fontColor=#ffffff;strokeColor=#001DBC;" vertex="1" parent="1">
                    <mxGeometry x="199.32" y="686.94" width="47.27" height="35" as="geometry"/>
                </mxCell>
                <mxCell id="110" value="" style="ellipse;whiteSpace=wrap;html=1;aspect=fixed;fillColor=#0050ef;fontColor=#ffffff;strokeColor=#001DBC;" vertex="1" parent="1">
                    <mxGeometry x="169.32" y="679.44" width="10" height="10" as="geometry"/>
                </mxCell>
                <mxCell id="111" value="" style="ellipse;whiteSpace=wrap;html=1;aspect=fixed;fillColor=#0050ef;fontColor=#ffffff;strokeColor=#001DBC;" vertex="1" parent="1">
                    <mxGeometry x="199.32" y="699.44" width="10" height="10" as="geometry"/>
                </mxCell>
                <mxCell id="112" value="" style="triangle;whiteSpace=wrap;html=1;opacity=50;rotation=-60;fillColor=#0050ef;fontColor=#ffffff;strokeColor=#001DBC;" vertex="1" parent="1">
                    <mxGeometry x="281.82" y="472.5" width="25" height="53.87" as="geometry"/>
                </mxCell>
                <mxCell id="113" value="" style="ellipse;whiteSpace=wrap;html=1;aspect=fixed;fillColor=#0050ef;fontColor=#ffffff;strokeColor=#001DBC;" vertex="1" parent="1">
                    <mxGeometry x="239.32" y="709.44" width="10" height="10" as="geometry"/>
                </mxCell>
                <mxCell id="114" value="" style="ellipse;whiteSpace=wrap;html=1;aspect=fixed;fillColor=#0050ef;fontColor=#ffffff;strokeColor=#001DBC;" vertex="1" parent="1">
                    <mxGeometry x="239.32" y="679.44" width="10" height="10" as="geometry"/>
                </mxCell>
                <mxCell id="115" value="" style="ellipse;whiteSpace=wrap;html=1;aspect=fixed;fillColor=#0050ef;fontColor=#ffffff;strokeColor=#001DBC;" vertex="1" parent="1">
                    <mxGeometry x="299.32" y="694.44" width="10" height="10" as="geometry"/>
                </mxCell>
                <mxCell id="116" value="" style="verticalLabelPosition=bottom;verticalAlign=top;html=1;shape=mxgraph.basic.orthogonal_triangle;opacity=50;fillColor=#0050ef;fontColor=#ffffff;strokeColor=#001DBC;rotation=-150;" vertex="1" parent="1">
                    <mxGeometry x="291.57" y="624.52" width="35" height="45" as="geometry"/>
                </mxCell>
                <mxCell id="117" value="" style="ellipse;whiteSpace=wrap;html=1;aspect=fixed;fillColor=#0050ef;fontColor=#ffffff;strokeColor=#001DBC;" vertex="1" parent="1">
                    <mxGeometry x="259.32" y="494.44" width="10" height="10" as="geometry"/>
                </mxCell>
                <mxCell id="118" value="" style="ellipse;whiteSpace=wrap;html=1;aspect=fixed;fillColor=#0050ef;fontColor=#ffffff;strokeColor=#001DBC;" vertex="1" parent="1">
                    <mxGeometry x="309.32" y="664.44" width="10" height="10" as="geometry"/>
                </mxCell>
                <mxCell id="119" value="" style="ellipse;whiteSpace=wrap;html=1;aspect=fixed;fillColor=#0050ef;fontColor=#ffffff;strokeColor=#001DBC;" vertex="1" parent="1">
                    <mxGeometry x="329.32" y="634.44" width="10" height="10" as="geometry"/>
                </mxCell>
                <mxCell id="120" value="" style="ellipse;whiteSpace=wrap;html=1;aspect=fixed;fillColor=#0050ef;fontColor=#ffffff;strokeColor=#001DBC;" vertex="1" parent="1">
                    <mxGeometry x="299.32" y="614.44" width="10" height="10" as="geometry"/>
                </mxCell>
                <mxCell id="121" value="" style="ellipse;whiteSpace=wrap;html=1;aspect=fixed;fillColor=#0050ef;fontColor=#ffffff;strokeColor=#001DBC;" vertex="1" parent="1">
                    <mxGeometry x="339.32" y="604.44" width="10" height="10" as="geometry"/>
                </mxCell>
                <mxCell id="122" value="" style="ellipse;whiteSpace=wrap;html=1;aspect=fixed;fillColor=#0050ef;fontColor=#ffffff;strokeColor=#001DBC;" vertex="1" parent="1">
                    <mxGeometry x="109.32" y="614.44" width="10" height="10" as="geometry"/>
                </mxCell>
                <mxCell id="123" value="" style="ellipse;whiteSpace=wrap;html=1;aspect=fixed;fillColor=#0050ef;fontColor=#ffffff;strokeColor=#001DBC;" vertex="1" parent="1">
                    <mxGeometry x="89.32" y="514.44" width="10" height="10" as="geometry"/>
                </mxCell>
                <mxCell id="124" value="" style="ellipse;whiteSpace=wrap;html=1;aspect=fixed;fillColor=#0050ef;fontColor=#ffffff;strokeColor=#001DBC;" vertex="1" parent="1">
                    <mxGeometry x="159.32" y="484.44" width="10" height="10" as="geometry"/>
                </mxCell>
                <mxCell id="125" value="" style="ellipse;whiteSpace=wrap;html=1;aspect=fixed;fillColor=#0050ef;fontColor=#ffffff;strokeColor=#001DBC;" vertex="1" parent="1">
                    <mxGeometry x="159.32" y="514.44" width="10" height="10" as="geometry"/>
                </mxCell>
                <mxCell id="126" value="" style="ellipse;whiteSpace=wrap;html=1;aspect=fixed;fillColor=#0050ef;fontColor=#ffffff;strokeColor=#001DBC;" vertex="1" parent="1">
                    <mxGeometry x="289.32" y="484.44" width="10" height="10" as="geometry"/>
                </mxCell>
                <mxCell id="127" value="" style="endArrow=none;html=1;entryX=0;entryY=0.5;entryDx=0;entryDy=0;exitX=1;exitY=0;exitDx=0;exitDy=0;" edge="1" parent="1" source="117" target="126">
                    <mxGeometry width="50" height="50" relative="1" as="geometry">
                        <mxPoint x="269.32" y="544.44" as="sourcePoint"/>
                        <mxPoint x="299.32" y="564.44" as="targetPoint"/>
                    </mxGeometry>
                </mxCell>
                <mxCell id="128" value="" style="endArrow=none;html=1;entryX=0;entryY=0;entryDx=0;entryDy=0;exitX=1;exitY=1;exitDx=0;exitDy=0;" edge="1" parent="1" source="126" target="102">
                    <mxGeometry width="50" height="50" relative="1" as="geometry">
                        <mxPoint x="179.32" y="584.44" as="sourcePoint"/>
                        <mxPoint x="229.32" y="534.44" as="targetPoint"/>
                    </mxGeometry>
                </mxCell>
                <mxCell id="129" value="" style="endArrow=none;html=1;entryX=0;entryY=0.5;entryDx=0;entryDy=0;exitX=1;exitY=0;exitDx=0;exitDy=0;" edge="1" parent="1" source="120" target="121">
                    <mxGeometry width="50" height="50" relative="1" as="geometry">
                        <mxPoint x="307.85553390593265" y="502.97553390593265" as="sourcePoint"/>
                        <mxPoint x="320.7844660940672" y="525.9044660940672" as="targetPoint"/>
                    </mxGeometry>
                </mxCell>
                <mxCell id="130" value="" style="endArrow=none;html=1;entryX=1;entryY=0;entryDx=0;entryDy=0;exitX=0.5;exitY=1;exitDx=0;exitDy=0;" edge="1" parent="1" source="121" target="119">
                    <mxGeometry width="50" height="50" relative="1" as="geometry">
                        <mxPoint x="317.85553390593265" y="512.9755339059327" as="sourcePoint"/>
                        <mxPoint x="330.7844660940672" y="535.9044660940672" as="targetPoint"/>
                    </mxGeometry>
                </mxCell>
                <mxCell id="131" value="" style="endArrow=none;html=1;entryX=0;entryY=0.5;entryDx=0;entryDy=0;exitX=1;exitY=1;exitDx=0;exitDy=0;" edge="1" parent="1" source="120" target="119">
                    <mxGeometry width="50" height="50" relative="1" as="geometry">
                        <mxPoint x="327.85553390593265" y="522.9755339059327" as="sourcePoint"/>
                        <mxPoint x="340.7844660940672" y="545.9044660940672" as="targetPoint"/>
                    </mxGeometry>
                </mxCell>
                <mxCell id="132" value="" style="endArrow=none;html=1;entryX=0.5;entryY=1;entryDx=0;entryDy=0;exitX=1;exitY=0;exitDx=0;exitDy=0;" edge="1" parent="1" source="118" target="119">
                    <mxGeometry width="50" height="50" relative="1" as="geometry">
                        <mxPoint x="327.85553390593265" y="694.4444660940671" as="sourcePoint"/>
                        <mxPoint x="359.32" y="687.98" as="targetPoint"/>
                    </mxGeometry>
                </mxCell>
                <mxCell id="133" value="" style="endArrow=none;html=1;entryX=0;entryY=1;entryDx=0;entryDy=0;exitX=1;exitY=0;exitDx=0;exitDy=0;" edge="1" parent="1" source="115" target="118">
                    <mxGeometry width="50" height="50" relative="1" as="geometry">
                        <mxPoint x="327.85553390593265" y="635.9044660940672" as="sourcePoint"/>
                        <mxPoint x="359.32" y="629.44" as="targetPoint"/>
                    </mxGeometry>
                </mxCell>
                <mxCell id="134" value="" style="endArrow=none;html=1;entryX=0.5;entryY=1;entryDx=0;entryDy=0;exitX=0.5;exitY=0;exitDx=0;exitDy=0;" edge="1" parent="1" source="113" target="114">
                    <mxGeometry width="50" height="50" relative="1" as="geometry">
                        <mxPoint x="337.85553390593265" y="645.9044660940672" as="sourcePoint"/>
                        <mxPoint x="369.32" y="639.44" as="targetPoint"/>
                    </mxGeometry>
                </mxCell>
                <mxCell id="135" value="" style="endArrow=none;html=1;entryX=0;entryY=1;entryDx=0;entryDy=0;exitX=1;exitY=1;exitDx=0;exitDy=0;" edge="1" parent="1" source="111" target="113">
                    <mxGeometry width="50" height="50" relative="1" as="geometry">
                        <mxPoint x="347.85553390593265" y="655.9044660940672" as="sourcePoint"/>
                        <mxPoint x="379.32" y="649.44" as="targetPoint"/>
                    </mxGeometry>
                </mxCell>
                <mxCell id="136" value="" style="endArrow=none;html=1;entryX=1;entryY=1;entryDx=0;entryDy=0;exitX=0;exitY=0;exitDx=0;exitDy=0;" edge="1" parent="1" source="111" target="110">
                    <mxGeometry width="50" height="50" relative="1" as="geometry">
                        <mxPoint x="357.85553390593265" y="665.9044660940672" as="sourcePoint"/>
                        <mxPoint x="389.32" y="659.44" as="targetPoint"/>
                    </mxGeometry>
                </mxCell>
                <mxCell id="137" value="" style="endArrow=none;html=1;entryX=1;entryY=0;entryDx=0;entryDy=0;exitX=0;exitY=1;exitDx=0;exitDy=0;" edge="1" parent="1" source="122" target="101">
                    <mxGeometry width="50" height="50" relative="1" as="geometry">
                        <mxPoint x="210.7844660940671" y="710.9044660940672" as="sourcePoint"/>
                        <mxPoint x="187.85553390593276" y="697.9755339059327" as="targetPoint"/>
                    </mxGeometry>
                </mxCell>
                <mxCell id="138" value="" style="endArrow=none;html=1;entryX=0.5;entryY=0;entryDx=0;entryDy=0;exitX=0.5;exitY=1;exitDx=0;exitDy=0;" edge="1" parent="1" source="103" target="122">
                    <mxGeometry width="50" height="50" relative="1" as="geometry">
                        <mxPoint x="120.78446609406717" y="632.9755339059327" as="sourcePoint"/>
                        <mxPoint x="97.8555339059327" y="645.9044660940672" as="targetPoint"/>
                    </mxGeometry>
                </mxCell>
                <mxCell id="139" value="" style="endArrow=none;html=1;entryX=0.5;entryY=0;entryDx=0;entryDy=0;exitX=0.5;exitY=1;exitDx=0;exitDy=0;" edge="1" parent="1" source="99" target="103">
                    <mxGeometry width="50" height="50" relative="1" as="geometry">
                        <mxPoint x="124.32" y="594.44" as="sourcePoint"/>
                        <mxPoint x="124.32" y="624.44" as="targetPoint"/>
                    </mxGeometry>
                </mxCell>
                <mxCell id="140" value="" style="endArrow=none;html=1;entryX=0;entryY=0;entryDx=0;entryDy=0;exitX=1;exitY=1;exitDx=0;exitDy=0;" edge="1" parent="1" source="123" target="99">
                    <mxGeometry width="50" height="50" relative="1" as="geometry">
                        <mxPoint x="134.32" y="604.44" as="sourcePoint"/>
                        <mxPoint x="134.32" y="634.44" as="targetPoint"/>
                    </mxGeometry>
                </mxCell>
                <mxCell id="141" value="" style="endArrow=none;html=1;entryX=0;entryY=0.5;entryDx=0;entryDy=0;exitX=1;exitY=0;exitDx=0;exitDy=0;" edge="1" parent="1" source="123" target="100">
                    <mxGeometry width="50" height="50" relative="1" as="geometry">
                        <mxPoint x="144.32" y="614.44" as="sourcePoint"/>
                        <mxPoint x="144.32" y="644.44" as="targetPoint"/>
                    </mxGeometry>
                </mxCell>
                <mxCell id="142" value="" style="endArrow=none;html=1;entryX=0;entryY=0.5;entryDx=0;entryDy=0;exitX=1;exitY=1;exitDx=0;exitDy=0;" edge="1" parent="1" source="100" target="125">
                    <mxGeometry width="50" height="50" relative="1" as="geometry">
                        <mxPoint x="154.32" y="624.44" as="sourcePoint"/>
                        <mxPoint x="154.32" y="654.44" as="targetPoint"/>
                    </mxGeometry>
                </mxCell>
                <mxCell id="143" value="" style="endArrow=none;html=1;entryX=0.5;entryY=0;entryDx=0;entryDy=0;exitX=0.5;exitY=1;exitDx=0;exitDy=0;" edge="1" parent="1" source="124" target="125">
                    <mxGeometry width="50" height="50" relative="1" as="geometry">
                        <mxPoint x="164.32" y="634.44" as="sourcePoint"/>
                        <mxPoint x="164.32" y="664.44" as="targetPoint"/>
                    </mxGeometry>
                </mxCell>
                <mxCell id="144" value="" style="endArrow=none;html=1;entryX=0;entryY=0.5;entryDx=0;entryDy=0;exitX=1;exitY=0;exitDx=0;exitDy=0;" edge="1" parent="1" source="100" target="124">
                    <mxGeometry width="50" height="50" relative="1" as="geometry">
                        <mxPoint x="174.32" y="644.44" as="sourcePoint"/>
                        <mxPoint x="174.32" y="674.44" as="targetPoint"/>
                    </mxGeometry>
                </mxCell>
                <mxCell id="145" value="" style="endArrow=none;html=1;entryX=0;entryY=1;entryDx=0;entryDy=0;exitX=1;exitY=0.5;exitDx=0;exitDy=0;" edge="1" parent="1" source="125" target="104">
                    <mxGeometry width="50" height="50" relative="1" as="geometry">
                        <mxPoint x="184.32" y="654.44" as="sourcePoint"/>
                        <mxPoint x="184.32" y="684.44" as="targetPoint"/>
                    </mxGeometry>
                </mxCell>
                <mxCell id="146" value="" style="endArrow=none;html=1;entryX=0;entryY=0;entryDx=0;entryDy=0;exitX=1;exitY=0.5;exitDx=0;exitDy=0;" edge="1" parent="1" source="124" target="104">
                    <mxGeometry width="50" height="50" relative="1" as="geometry">
                        <mxPoint x="194.32" y="664.44" as="sourcePoint"/>
                        <mxPoint x="194.32" y="694.44" as="targetPoint"/>
                    </mxGeometry>
                </mxCell>
                <mxCell id="147" value="" style="endArrow=none;html=1;entryX=0;entryY=1;entryDx=0;entryDy=0;exitX=0.5;exitY=0;exitDx=0;exitDy=0;" edge="1" parent="1" source="99" target="100">
                    <mxGeometry width="50" height="50" relative="1" as="geometry">
                        <mxPoint x="107.85553390591127" y="525.9044660940888" as="sourcePoint"/>
                        <mxPoint x="139.32" y="519.44" as="targetPoint"/>
                    </mxGeometry>
                </mxCell>
                <mxCell id="148" value="" style="verticalLabelPosition=bottom;verticalAlign=top;html=1;shape=mxgraph.basic.obtuse_triangle;dx=0.08;opacity=50;rotation=-30;fillColor=#0050ef;fontColor=#ffffff;strokeColor=#001DBC;" vertex="1" parent="1">
                    <mxGeometry x="98.66000000000003" y="501.92" width="70.66" height="35.05" as="geometry"/>
                </mxCell>
                <mxCell id="149" value="" style="endArrow=none;html=1;entryX=0;entryY=1;entryDx=0;entryDy=0;exitX=1;exitY=0.5;exitDx=0;exitDy=0;" edge="1" parent="1" source="99" target="125">
                    <mxGeometry width="50" height="50" relative="1" as="geometry">
                        <mxPoint x="117.85553390591127" y="535.9044660940888" as="sourcePoint"/>
                        <mxPoint x="149.32" y="529.44" as="targetPoint"/>
                    </mxGeometry>
                </mxCell>
                <mxCell id="150" value="" style="endArrow=none;html=1;entryX=0;entryY=0.5;entryDx=0;entryDy=0;exitX=1;exitY=0.5;exitDx=0;exitDy=0;" edge="1" parent="1" source="123" target="125">
                    <mxGeometry width="50" height="50" relative="1" as="geometry">
                        <mxPoint x="127.85553390591127" y="545.9044660940888" as="sourcePoint"/>
                        <mxPoint x="159.32" y="539.44" as="targetPoint"/>
                    </mxGeometry>
                </mxCell>
                <mxCell id="151" value="" style="endArrow=none;html=1;entryX=0.5;entryY=1;entryDx=0;entryDy=0;exitX=0;exitY=0;exitDx=0;exitDy=0;" edge="1" parent="1" source="103" target="123">
                    <mxGeometry width="50" height="50" relative="1" as="geometry">
                        <mxPoint x="137.85553390591127" y="555.9044660940888" as="sourcePoint"/>
                        <mxPoint x="169.32" y="549.44" as="targetPoint"/>
                    </mxGeometry>
                </mxCell>
                <mxCell id="152" value="" style="endArrow=none;html=1;entryX=0;entryY=1;entryDx=0;entryDy=0;exitX=0.5;exitY=0;exitDx=0;exitDy=0;" edge="1" parent="1" source="101" target="103">
                    <mxGeometry width="50" height="50" relative="1" as="geometry">
                        <mxPoint x="147.85553390591127" y="565.9044660940888" as="sourcePoint"/>
                        <mxPoint x="179.32" y="559.44" as="targetPoint"/>
                    </mxGeometry>
                </mxCell>
                <mxCell id="153" value="" style="endArrow=none;html=1;entryX=1;entryY=1;entryDx=0;entryDy=0;exitX=0;exitY=0.5;exitDx=0;exitDy=0;" edge="1" parent="1" source="107" target="101">
                    <mxGeometry width="50" height="50" relative="1" as="geometry">
                        <mxPoint x="157.85553390591127" y="575.9044660940888" as="sourcePoint"/>
                        <mxPoint x="189.32" y="569.44" as="targetPoint"/>
                    </mxGeometry>
                </mxCell>
                <mxCell id="154" value="" style="endArrow=none;html=1;entryX=0.5;entryY=0;entryDx=0;entryDy=0;exitX=1;exitY=1;exitDx=0;exitDy=0;" edge="1" parent="1" source="122" target="107">
                    <mxGeometry width="50" height="50" relative="1" as="geometry">
                        <mxPoint x="167.85553390591127" y="585.9044660940888" as="sourcePoint"/>
                        <mxPoint x="199.32" y="579.44" as="targetPoint"/>
                    </mxGeometry>
                </mxCell>
                <mxCell id="155" value="" style="endArrow=none;html=1;entryX=1;entryY=1;entryDx=0;entryDy=0;exitX=0;exitY=0.5;exitDx=0;exitDy=0;" edge="1" parent="1" source="110" target="107">
                    <mxGeometry width="50" height="50" relative="1" as="geometry">
                        <mxPoint x="127.85553390593265" y="632.9755339059327" as="sourcePoint"/>
                        <mxPoint x="134.32" y="689.44" as="targetPoint"/>
                    </mxGeometry>
                </mxCell>
                <mxCell id="156" value="" style="endArrow=none;html=1;entryX=1;entryY=0.5;entryDx=0;entryDy=0;exitX=0;exitY=0.5;exitDx=0;exitDy=0;" edge="1" parent="1" source="114" target="110">
                    <mxGeometry width="50" height="50" relative="1" as="geometry">
                        <mxPoint x="137.85553390593265" y="642.9755339059327" as="sourcePoint"/>
                        <mxPoint x="144.32" y="699.44" as="targetPoint"/>
                    </mxGeometry>
                </mxCell>
                <mxCell id="157" value="" style="endArrow=none;html=1;entryX=1;entryY=0;entryDx=0;entryDy=0;exitX=0;exitY=1;exitDx=0;exitDy=0;" edge="1" parent="1" source="114" target="111">
                    <mxGeometry width="50" height="50" relative="1" as="geometry">
                        <mxPoint x="147.85553390593265" y="652.9755339059327" as="sourcePoint"/>
                        <mxPoint x="154.32" y="709.44" as="targetPoint"/>
                    </mxGeometry>
                </mxCell>
                <mxCell id="158" value="" style="endArrow=none;html=1;entryX=1;entryY=1;entryDx=0;entryDy=0;exitX=0;exitY=0.5;exitDx=0;exitDy=0;" edge="1" parent="1" source="115" target="114">
                    <mxGeometry width="50" height="50" relative="1" as="geometry">
                        <mxPoint x="157.85553390593265" y="662.9755339059327" as="sourcePoint"/>
                        <mxPoint x="164.32" y="719.44" as="targetPoint"/>
                    </mxGeometry>
                </mxCell>
                <mxCell id="159" value="" style="endArrow=none;html=1;entryX=1;entryY=0.5;entryDx=0;entryDy=0;exitX=0;exitY=1;exitDx=0;exitDy=0;" edge="1" parent="1" source="115" target="113">
                    <mxGeometry width="50" height="50" relative="1" as="geometry">
                        <mxPoint x="167.85553390593265" y="672.9755339059327" as="sourcePoint"/>
                        <mxPoint x="174.32" y="729.44" as="targetPoint"/>
                    </mxGeometry>
                </mxCell>
                <mxCell id="160" value="" style="endArrow=none;html=1;entryX=0;entryY=0;entryDx=0;entryDy=0;exitX=0.5;exitY=1;exitDx=0;exitDy=0;" edge="1" parent="1" source="120" target="118">
                    <mxGeometry width="50" height="50" relative="1" as="geometry">
                        <mxPoint x="177.85553390593265" y="682.9755339059327" as="sourcePoint"/>
                        <mxPoint x="184.32" y="739.44" as="targetPoint"/>
                    </mxGeometry>
                </mxCell>
                <mxCell id="161" value="" style="endArrow=none;html=1;entryX=0;entryY=0.5;entryDx=0;entryDy=0;exitX=1;exitY=0.5;exitDx=0;exitDy=0;" edge="1" parent="1" source="104" target="117">
                    <mxGeometry width="50" height="50" relative="1" as="geometry">
                        <mxPoint x="242.85553390593265" y="534.4355339059327" as="sourcePoint"/>
                        <mxPoint x="249.32" y="590.9000000000001" as="targetPoint"/>
                    </mxGeometry>
                </mxCell>
                <mxCell id="162" value="" style="endArrow=none;html=1;entryX=0;entryY=0.5;entryDx=0;entryDy=0;exitX=1;exitY=1;exitDx=0;exitDy=0;" edge="1" parent="1" source="117" target="102">
                    <mxGeometry width="50" height="50" relative="1" as="geometry">
                        <mxPoint x="214.32" y="509.44" as="sourcePoint"/>
                        <mxPoint x="269.32000000003046" y="509.44" as="targetPoint"/>
                    </mxGeometry>
                </mxCell>
                <mxCell id="163" value="" style="endArrow=none;html=1;entryX=0;entryY=0;entryDx=0;entryDy=0;exitX=1;exitY=1;exitDx=0;exitDy=0;" edge="1" parent="1" source="102" target="106">
                    <mxGeometry width="50" height="50" relative="1" as="geometry">
                        <mxPoint x="224.32" y="519.44" as="sourcePoint"/>
                        <mxPoint x="279.32000000003046" y="519.44" as="targetPoint"/>
                    </mxGeometry>
                </mxCell>
                <mxCell id="164" value="" style="endArrow=none;html=1;entryX=0.5;entryY=0;entryDx=0;entryDy=0;exitX=0.5;exitY=1;exitDx=0;exitDy=0;" edge="1" parent="1" source="106" target="121">
                    <mxGeometry width="50" height="50" relative="1" as="geometry">
                        <mxPoint x="234.32" y="529.44" as="sourcePoint"/>
                        <mxPoint x="289.32000000003046" y="529.44" as="targetPoint"/>
                    </mxGeometry>
                </mxCell>
                <mxCell id="165" value="" style="verticalLabelPosition=bottom;verticalAlign=top;html=1;shape=mxgraph.basic.obtuse_triangle;dx=0.28;opacity=50;rotation=-195;fillColor=#0050ef;fontColor=#ffffff;strokeColor=#001DBC;" vertex="1" parent="1">
                    <mxGeometry x="99.17000000000002" y="512.03" width="53.44" height="14.11" as="geometry"/>
                </mxCell>
                <mxCell id="166" value="" style="endArrow=classic;html=1;" edge="1" parent="1">
                    <mxGeometry width="50" height="50" relative="1" as="geometry">
                        <mxPoint x="394" y="199.41999999999996" as="sourcePoint"/>
                        <mxPoint x="550" y="160" as="targetPoint"/>
                    </mxGeometry>
                </mxCell>
                <mxCell id="167" value="&lt;font style=&quot;font-size: 20px;&quot;&gt;H_0&lt;/font&gt;" style="text;html=1;strokeColor=none;fillColor=none;align=center;verticalAlign=middle;whiteSpace=wrap;rounded=0;" vertex="1" parent="1">
                    <mxGeometry x="430" y="149.42000000000002" width="60" height="30" as="geometry"/>
                </mxCell>
                <mxCell id="168" value="" style="endArrow=classic;html=1;" edge="1" parent="1">
                    <mxGeometry width="50" height="50" relative="1" as="geometry">
                        <mxPoint x="390" y="277.49000000000007" as="sourcePoint"/>
                        <mxPoint x="550" y="320" as="targetPoint"/>
                    </mxGeometry>
                </mxCell>
                <mxCell id="169" value="&lt;font style=&quot;font-size: 20px;&quot;&gt;H_1&lt;/font&gt;" style="text;html=1;strokeColor=none;fillColor=none;align=center;verticalAlign=middle;whiteSpace=wrap;rounded=0;" vertex="1" parent="1">
                    <mxGeometry x="450" y="261.94" width="60" height="30" as="geometry"/>
                </mxCell>
                <mxCell id="170" value="" style="triangle;whiteSpace=wrap;html=1;opacity=50;rotation=-65;fillColor=#0050ef;fontColor=#ffffff;strokeColor=#001DBC;" vertex="1" parent="1">
                    <mxGeometry x="142.95" y="122.5" width="32.27" height="35" as="geometry"/>
                </mxCell>
                <mxCell id="171" value="" style="triangle;whiteSpace=wrap;html=1;opacity=50;rotation=0;fillColor=#0050ef;fontColor=#ffffff;strokeColor=#001DBC;" vertex="1" parent="1">
                    <mxGeometry x="165.68" y="120" width="37.27" height="40" as="geometry"/>
                </mxCell>
                <mxCell id="172" value="" style="triangle;whiteSpace=wrap;html=1;opacity=50;rotation=-45;fillColor=#0050ef;fontColor=#ffffff;strokeColor=#001DBC;" vertex="1" parent="1">
                    <mxGeometry x="317.95" y="238.5" width="35" height="40" as="geometry"/>
                </mxCell>
                <mxCell id="195" value="" style="ellipse;whiteSpace=wrap;html=1;aspect=fixed;fillColor=#0050ef;fontColor=#ffffff;strokeColor=#001DBC;" vertex="1" parent="1">
                    <mxGeometry x="112.94999999999999" y="182.5" width="10" height="10" as="geometry"/>
                </mxCell>
                <mxCell id="196" value="" style="ellipse;whiteSpace=wrap;html=1;aspect=fixed;fillColor=#0050ef;fontColor=#ffffff;strokeColor=#001DBC;" vertex="1" parent="1">
                    <mxGeometry x="132.95" y="142.5" width="10" height="10" as="geometry"/>
                </mxCell>
                <mxCell id="197" value="" style="ellipse;whiteSpace=wrap;html=1;aspect=fixed;fillColor=#0050ef;fontColor=#ffffff;strokeColor=#001DBC;" vertex="1" parent="1">
                    <mxGeometry x="82.94999999999999" y="272.5" width="10" height="10" as="geometry"/>
                </mxCell>
                <mxCell id="198" value="" style="ellipse;whiteSpace=wrap;html=1;aspect=fixed;fillColor=#0050ef;fontColor=#ffffff;strokeColor=#001DBC;" vertex="1" parent="1">
                    <mxGeometry x="312.95" y="152.5" width="10" height="10" as="geometry"/>
                </mxCell>
                <mxCell id="199" value="" style="ellipse;whiteSpace=wrap;html=1;aspect=fixed;fillColor=#0050ef;fontColor=#ffffff;strokeColor=#001DBC;" vertex="1" parent="1">
                    <mxGeometry x="112.94999999999999" y="212.5" width="10" height="10" as="geometry"/>
                </mxCell>
                <mxCell id="200" value="" style="ellipse;whiteSpace=wrap;html=1;aspect=fixed;fillColor=#0050ef;fontColor=#ffffff;strokeColor=#001DBC;" vertex="1" parent="1">
                    <mxGeometry x="197.95" y="132.5" width="10" height="10" as="geometry"/>
                </mxCell>
                <mxCell id="201" value="" style="ellipse;whiteSpace=wrap;html=1;aspect=fixed;fillColor=#0050ef;fontColor=#ffffff;strokeColor=#001DBC;" vertex="1" parent="1">
                    <mxGeometry x="352.95" y="182.5" width="10" height="10" as="geometry"/>
                </mxCell>
                <mxCell id="202" value="" style="ellipse;whiteSpace=wrap;html=1;aspect=fixed;fillColor=#0050ef;fontColor=#ffffff;strokeColor=#001DBC;" vertex="1" parent="1">
                    <mxGeometry x="122.94999999999999" y="317.5" width="10" height="10" as="geometry"/>
                </mxCell>
                <mxCell id="203" value="" style="ellipse;whiteSpace=wrap;html=1;aspect=fixed;fillColor=#0050ef;fontColor=#ffffff;strokeColor=#001DBC;" vertex="1" parent="1">
                    <mxGeometry x="172.95" y="317.5" width="10" height="10" as="geometry"/>
                </mxCell>
                <mxCell id="204" value="" style="ellipse;whiteSpace=wrap;html=1;aspect=fixed;fillColor=#0050ef;fontColor=#ffffff;strokeColor=#001DBC;" vertex="1" parent="1">
                    <mxGeometry x="202.95" y="337.5" width="10" height="10" as="geometry"/>
                </mxCell>
                <mxCell id="205" value="" style="ellipse;whiteSpace=wrap;html=1;aspect=fixed;fillColor=#0050ef;fontColor=#ffffff;strokeColor=#001DBC;" vertex="1" parent="1">
                    <mxGeometry x="242.95" y="347.5" width="10" height="10" as="geometry"/>
                </mxCell>
                <mxCell id="206" value="" style="ellipse;whiteSpace=wrap;html=1;aspect=fixed;fillColor=#0050ef;fontColor=#ffffff;strokeColor=#001DBC;" vertex="1" parent="1">
                    <mxGeometry x="242.95" y="317.5" width="10" height="10" as="geometry"/>
                </mxCell>
                <mxCell id="207" value="" style="ellipse;whiteSpace=wrap;html=1;aspect=fixed;fillColor=#0050ef;fontColor=#ffffff;strokeColor=#001DBC;" vertex="1" parent="1">
                    <mxGeometry x="302.95" y="332.5" width="10" height="10" as="geometry"/>
                </mxCell>
                <mxCell id="208" value="" style="ellipse;whiteSpace=wrap;html=1;aspect=fixed;fillColor=#0050ef;fontColor=#ffffff;strokeColor=#001DBC;" vertex="1" parent="1">
                    <mxGeometry x="262.95" y="132.5" width="10" height="10" as="geometry"/>
                </mxCell>
                <mxCell id="209" value="" style="ellipse;whiteSpace=wrap;html=1;aspect=fixed;fillColor=#0050ef;fontColor=#ffffff;strokeColor=#001DBC;" vertex="1" parent="1">
                    <mxGeometry x="312.95" y="302.5" width="10" height="10" as="geometry"/>
                </mxCell>
                <mxCell id="210" value="" style="ellipse;whiteSpace=wrap;html=1;aspect=fixed;fillColor=#0050ef;fontColor=#ffffff;strokeColor=#001DBC;" vertex="1" parent="1">
                    <mxGeometry x="332.95" y="272.5" width="10" height="10" as="geometry"/>
                </mxCell>
                <mxCell id="211" value="" style="ellipse;whiteSpace=wrap;html=1;aspect=fixed;fillColor=#0050ef;fontColor=#ffffff;strokeColor=#001DBC;" vertex="1" parent="1">
                    <mxGeometry x="302.95" y="252.5" width="10" height="10" as="geometry"/>
                </mxCell>
                <mxCell id="212" value="" style="ellipse;whiteSpace=wrap;html=1;aspect=fixed;fillColor=#0050ef;fontColor=#ffffff;strokeColor=#001DBC;" vertex="1" parent="1">
                    <mxGeometry x="342.95" y="242.5" width="10" height="10" as="geometry"/>
                </mxCell>
                <mxCell id="213" value="" style="ellipse;whiteSpace=wrap;html=1;aspect=fixed;fillColor=#0050ef;fontColor=#ffffff;strokeColor=#001DBC;" vertex="1" parent="1">
                    <mxGeometry x="112.94999999999999" y="252.5" width="10" height="10" as="geometry"/>
                </mxCell>
                <mxCell id="214" value="" style="ellipse;whiteSpace=wrap;html=1;aspect=fixed;fillColor=#0050ef;fontColor=#ffffff;strokeColor=#001DBC;" vertex="1" parent="1">
                    <mxGeometry x="92.94999999999999" y="152.5" width="10" height="10" as="geometry"/>
                </mxCell>
                <mxCell id="215" value="" style="ellipse;whiteSpace=wrap;html=1;aspect=fixed;fillColor=#0050ef;fontColor=#ffffff;strokeColor=#001DBC;" vertex="1" parent="1">
                    <mxGeometry x="162.95" y="122.5" width="10" height="10" as="geometry"/>
                </mxCell>
                <mxCell id="216" value="" style="ellipse;whiteSpace=wrap;html=1;aspect=fixed;fillColor=#0050ef;fontColor=#ffffff;strokeColor=#001DBC;" vertex="1" parent="1">
                    <mxGeometry x="162.95" y="152.5" width="10" height="10" as="geometry"/>
                </mxCell>
                <mxCell id="217" value="" style="ellipse;whiteSpace=wrap;html=1;aspect=fixed;fillColor=#0050ef;fontColor=#ffffff;strokeColor=#001DBC;" vertex="1" parent="1">
                    <mxGeometry x="292.95" y="122.5" width="10" height="10" as="geometry"/>
                </mxCell>
                <mxCell id="218" value="" style="endArrow=none;html=1;entryX=0;entryY=0.5;entryDx=0;entryDy=0;exitX=1;exitY=0;exitDx=0;exitDy=0;" edge="1" parent="1" source="208" target="217">
                    <mxGeometry width="50" height="50" relative="1" as="geometry">
                        <mxPoint x="272.95" y="182.5" as="sourcePoint"/>
                        <mxPoint x="302.95" y="202.5" as="targetPoint"/>
                    </mxGeometry>
                </mxCell>
                <mxCell id="219" value="" style="endArrow=none;html=1;entryX=0;entryY=0;entryDx=0;entryDy=0;exitX=1;exitY=1;exitDx=0;exitDy=0;" edge="1" parent="1" source="217" target="198">
                    <mxGeometry width="50" height="50" relative="1" as="geometry">
                        <mxPoint x="182.95" y="222.5" as="sourcePoint"/>
                        <mxPoint x="232.95" y="172.5" as="targetPoint"/>
                    </mxGeometry>
                </mxCell>
                <mxCell id="220" value="" style="endArrow=none;html=1;entryX=0;entryY=0.5;entryDx=0;entryDy=0;exitX=1;exitY=0;exitDx=0;exitDy=0;" edge="1" parent="1" source="211" target="212">
                    <mxGeometry width="50" height="50" relative="1" as="geometry">
                        <mxPoint x="311.48553390593264" y="141.03553390593265" as="sourcePoint"/>
                        <mxPoint x="324.4144660940672" y="163.96446609406723" as="targetPoint"/>
                    </mxGeometry>
                </mxCell>
                <mxCell id="221" value="" style="endArrow=none;html=1;entryX=1;entryY=0;entryDx=0;entryDy=0;exitX=0.5;exitY=1;exitDx=0;exitDy=0;" edge="1" parent="1" source="212" target="210">
                    <mxGeometry width="50" height="50" relative="1" as="geometry">
                        <mxPoint x="321.48553390593264" y="151.03553390593265" as="sourcePoint"/>
                        <mxPoint x="334.4144660940672" y="173.96446609406723" as="targetPoint"/>
                    </mxGeometry>
                </mxCell>
                <mxCell id="222" value="" style="endArrow=none;html=1;entryX=0;entryY=0.5;entryDx=0;entryDy=0;exitX=1;exitY=1;exitDx=0;exitDy=0;" edge="1" parent="1" source="211" target="210">
                    <mxGeometry width="50" height="50" relative="1" as="geometry">
                        <mxPoint x="331.48553390593264" y="161.03553390593265" as="sourcePoint"/>
                        <mxPoint x="344.4144660940672" y="183.96446609406723" as="targetPoint"/>
                    </mxGeometry>
                </mxCell>
                <mxCell id="223" value="" style="endArrow=none;html=1;entryX=0.5;entryY=1;entryDx=0;entryDy=0;exitX=1;exitY=0;exitDx=0;exitDy=0;" edge="1" parent="1" source="209" target="210">
                    <mxGeometry width="50" height="50" relative="1" as="geometry">
                        <mxPoint x="331.48553390593264" y="332.5044660940673" as="sourcePoint"/>
                        <mxPoint x="362.95" y="326.03999999999996" as="targetPoint"/>
                    </mxGeometry>
                </mxCell>
                <mxCell id="224" value="" style="endArrow=none;html=1;entryX=0;entryY=1;entryDx=0;entryDy=0;exitX=1;exitY=0;exitDx=0;exitDy=0;" edge="1" parent="1" source="207" target="209">
                    <mxGeometry width="50" height="50" relative="1" as="geometry">
                        <mxPoint x="331.48553390593264" y="273.96446609406735" as="sourcePoint"/>
                        <mxPoint x="362.95" y="267.5" as="targetPoint"/>
                    </mxGeometry>
                </mxCell>
                <mxCell id="225" value="" style="endArrow=none;html=1;entryX=0.5;entryY=1;entryDx=0;entryDy=0;exitX=0.5;exitY=0;exitDx=0;exitDy=0;" edge="1" parent="1" source="205" target="206">
                    <mxGeometry width="50" height="50" relative="1" as="geometry">
                        <mxPoint x="341.48553390593264" y="283.96446609406735" as="sourcePoint"/>
                        <mxPoint x="372.95" y="277.5" as="targetPoint"/>
                    </mxGeometry>
                </mxCell>
                <mxCell id="226" value="" style="endArrow=none;html=1;entryX=0;entryY=1;entryDx=0;entryDy=0;exitX=1;exitY=1;exitDx=0;exitDy=0;" edge="1" parent="1" source="204" target="205">
                    <mxGeometry width="50" height="50" relative="1" as="geometry">
                        <mxPoint x="351.48553390593264" y="293.96446609406735" as="sourcePoint"/>
                        <mxPoint x="382.95" y="287.5" as="targetPoint"/>
                    </mxGeometry>
                </mxCell>
                <mxCell id="227" value="" style="endArrow=none;html=1;entryX=1;entryY=1;entryDx=0;entryDy=0;exitX=0;exitY=0;exitDx=0;exitDy=0;" edge="1" parent="1" source="204" target="203">
                    <mxGeometry width="50" height="50" relative="1" as="geometry">
                        <mxPoint x="361.48553390593264" y="303.96446609406735" as="sourcePoint"/>
                        <mxPoint x="392.95" y="297.5" as="targetPoint"/>
                    </mxGeometry>
                </mxCell>
                <mxCell id="228" value="" style="endArrow=none;html=1;entryX=1;entryY=0;entryDx=0;entryDy=0;exitX=0;exitY=1;exitDx=0;exitDy=0;" edge="1" parent="1" source="213" target="197">
                    <mxGeometry width="50" height="50" relative="1" as="geometry">
                        <mxPoint x="214.4144660940671" y="348.9644660940671" as="sourcePoint"/>
                        <mxPoint x="191.48553390593275" y="336.0355339059329" as="targetPoint"/>
                    </mxGeometry>
                </mxCell>
                <mxCell id="229" value="" style="endArrow=none;html=1;entryX=0.5;entryY=0;entryDx=0;entryDy=0;exitX=0.5;exitY=1;exitDx=0;exitDy=0;" edge="1" parent="1" source="199" target="213">
                    <mxGeometry width="50" height="50" relative="1" as="geometry">
                        <mxPoint x="124.41446609406711" y="271.0355339059329" as="sourcePoint"/>
                        <mxPoint x="101.48553390593264" y="283.96446609406735" as="targetPoint"/>
                    </mxGeometry>
                </mxCell>
                <mxCell id="230" value="" style="endArrow=none;html=1;entryX=0.5;entryY=0;entryDx=0;entryDy=0;exitX=0.5;exitY=1;exitDx=0;exitDy=0;" edge="1" parent="1" source="195" target="199">
                    <mxGeometry width="50" height="50" relative="1" as="geometry">
                        <mxPoint x="127.94999999999999" y="232.5" as="sourcePoint"/>
                        <mxPoint x="127.94999999999999" y="262.5" as="targetPoint"/>
                    </mxGeometry>
                </mxCell>
                <mxCell id="231" value="" style="endArrow=none;html=1;entryX=0;entryY=0;entryDx=0;entryDy=0;exitX=1;exitY=1;exitDx=0;exitDy=0;" edge="1" parent="1" source="214" target="195">
                    <mxGeometry width="50" height="50" relative="1" as="geometry">
                        <mxPoint x="137.95" y="242.5" as="sourcePoint"/>
                        <mxPoint x="137.95" y="272.5" as="targetPoint"/>
                    </mxGeometry>
                </mxCell>
                <mxCell id="232" value="" style="endArrow=none;html=1;entryX=0;entryY=0.5;entryDx=0;entryDy=0;exitX=1;exitY=0;exitDx=0;exitDy=0;" edge="1" parent="1" source="214" target="196">
                    <mxGeometry width="50" height="50" relative="1" as="geometry">
                        <mxPoint x="147.95" y="252.5" as="sourcePoint"/>
                        <mxPoint x="147.95" y="282.5" as="targetPoint"/>
                    </mxGeometry>
                </mxCell>
                <mxCell id="233" value="" style="endArrow=none;html=1;entryX=0;entryY=0.5;entryDx=0;entryDy=0;exitX=1;exitY=1;exitDx=0;exitDy=0;" edge="1" parent="1" source="196" target="216">
                    <mxGeometry width="50" height="50" relative="1" as="geometry">
                        <mxPoint x="157.95" y="262.5" as="sourcePoint"/>
                        <mxPoint x="157.95" y="292.5" as="targetPoint"/>
                    </mxGeometry>
                </mxCell>
                <mxCell id="234" value="" style="endArrow=none;html=1;entryX=0.5;entryY=0;entryDx=0;entryDy=0;exitX=0.5;exitY=1;exitDx=0;exitDy=0;" edge="1" parent="1" source="215" target="216">
                    <mxGeometry width="50" height="50" relative="1" as="geometry">
                        <mxPoint x="167.95" y="272.5" as="sourcePoint"/>
                        <mxPoint x="167.95" y="302.5" as="targetPoint"/>
                    </mxGeometry>
                </mxCell>
                <mxCell id="235" value="" style="endArrow=none;html=1;entryX=0;entryY=0.5;entryDx=0;entryDy=0;exitX=1;exitY=0;exitDx=0;exitDy=0;" edge="1" parent="1" source="196" target="215">
                    <mxGeometry width="50" height="50" relative="1" as="geometry">
                        <mxPoint x="177.95" y="282.5" as="sourcePoint"/>
                        <mxPoint x="177.95" y="312.5" as="targetPoint"/>
                    </mxGeometry>
                </mxCell>
                <mxCell id="236" value="" style="endArrow=none;html=1;entryX=0;entryY=1;entryDx=0;entryDy=0;exitX=1;exitY=0.5;exitDx=0;exitDy=0;" edge="1" parent="1" source="216" target="200">
                    <mxGeometry width="50" height="50" relative="1" as="geometry">
                        <mxPoint x="187.95" y="292.5" as="sourcePoint"/>
                        <mxPoint x="187.95" y="322.5" as="targetPoint"/>
                    </mxGeometry>
                </mxCell>
                <mxCell id="237" value="" style="endArrow=none;html=1;entryX=0;entryY=0;entryDx=0;entryDy=0;exitX=1;exitY=0.5;exitDx=0;exitDy=0;" edge="1" parent="1" source="215" target="200">
                    <mxGeometry width="50" height="50" relative="1" as="geometry">
                        <mxPoint x="197.95" y="302.5" as="sourcePoint"/>
                        <mxPoint x="197.95" y="332.5" as="targetPoint"/>
                    </mxGeometry>
                </mxCell>
                <mxCell id="238" value="" style="endArrow=classic;html=1;" edge="1" parent="1">
                    <mxGeometry width="50" height="50" relative="1" as="geometry">
                        <mxPoint x="394" y="558.8600000000001" as="sourcePoint"/>
                        <mxPoint x="550" y="519.44" as="targetPoint"/>
                    </mxGeometry>
                </mxCell>
                <mxCell id="239" value="&lt;font style=&quot;font-size: 20px;&quot;&gt;H_0&lt;/font&gt;" style="text;html=1;strokeColor=none;fillColor=none;align=center;verticalAlign=middle;whiteSpace=wrap;rounded=0;" vertex="1" parent="1">
                    <mxGeometry x="430" y="508.86" width="60" height="30" as="geometry"/>
                </mxCell>
                <mxCell id="240" value="" style="endArrow=classic;html=1;" edge="1" parent="1">
                    <mxGeometry width="50" height="50" relative="1" as="geometry">
                        <mxPoint x="390" y="636.9300000000001" as="sourcePoint"/>
                        <mxPoint x="550" y="679.44" as="targetPoint"/>
                    </mxGeometry>
                </mxCell>
                <mxCell id="241" value="&lt;font style=&quot;font-size: 20px;&quot;&gt;H_1&lt;/font&gt;" style="text;html=1;strokeColor=none;fillColor=none;align=center;verticalAlign=middle;whiteSpace=wrap;rounded=0;" vertex="1" parent="1">
                    <mxGeometry x="450" y="621.38" width="60" height="30" as="geometry"/>
                </mxCell>
                <mxCell id="243" value="&lt;font style=&quot;font-size: 25px;&quot;&gt;6&lt;/font&gt;" style="text;html=1;strokeColor=none;fillColor=none;align=center;verticalAlign=middle;whiteSpace=wrap;rounded=0;fontSize=25;fontStyle=1" vertex="1" parent="1">
                    <mxGeometry x="540" y="142.5" width="60" height="30" as="geometry"/>
                </mxCell>
                <mxCell id="244" value="&lt;font style=&quot;font-size: 25px;&quot;&gt;0&lt;/font&gt;" style="text;html=1;strokeColor=none;fillColor=none;align=center;verticalAlign=middle;whiteSpace=wrap;rounded=0;fontSize=25;fontStyle=1" vertex="1" parent="1">
                    <mxGeometry x="540" y="307.5" width="60" height="30" as="geometry"/>
                </mxCell>
                <mxCell id="245" value="&lt;font style=&quot;font-size: 25px;&quot;&gt;1&lt;/font&gt;" style="text;html=1;strokeColor=none;fillColor=none;align=center;verticalAlign=middle;whiteSpace=wrap;rounded=0;fontSize=25;fontStyle=1" vertex="1" parent="1">
                    <mxGeometry x="540" y="501.92" width="60" height="30" as="geometry"/>
                </mxCell>
                <mxCell id="246" value="&lt;font style=&quot;font-size: 25px;&quot;&gt;&lt;b&gt;1&lt;/b&gt;&lt;/font&gt;" style="text;html=1;strokeColor=none;fillColor=none;align=center;verticalAlign=middle;whiteSpace=wrap;rounded=0;" vertex="1" parent="1">
                    <mxGeometry x="540" y="666.9200000000001" width="60" height="30" as="geometry"/>
                </mxCell>
            </root>
        </mxGraphModel>
    </diagram>
</mxfile>